<svg width="161" height="242" viewBox="0 0 161 242" fill="none" xmlns="http://www.w3.org/2000/svg">
<path d="M40.2581 242C62.4716 242 80.5 223.931 80.5 201.667V161.333H40.2581C18.0445 161.333 0.0161133 179.403 0.0161133 201.667C0.0161133 223.931 18.0445 242 40.2581 242Z" fill="#0ACF83"/>
<path d="M0.0161133 121C0.0161133 98.736 18.0445 80.6667 40.2581 80.6667H80.5V161.333H40.2581C18.0445 161.333 0.0161133 143.264 0.0161133 121Z" fill="#A259FF"/>
<path d="M0.0167236 40.3334C0.0167236 18.0694 18.0451 4.57764e-05 40.2587 4.57764e-05H80.5006V80.6667H40.2587C18.0451 80.6667 0.0167236 62.5974 0.0167236 40.3334Z" fill="#F24E1E"/>
<path d="M80.5 4.57764e-05H120.742C142.956 4.57764e-05 160.984 18.0694 160.984 40.3334C160.984 62.5974 142.956 80.6667 120.742 80.6667H80.5V4.57764e-05Z" fill="#FF7262"/>
<path d="M160.984 121C160.984 143.264 142.956 161.333 120.742 161.333C98.5284 161.333 80.5 143.264 80.5 121C80.5 98.736 98.5284 80.6667 120.742 80.6667C142.956 80.6667 160.984 98.736 160.984 121Z" fill="#1ABCFE"/>
</svg>
